<?xml version="1.0" encoding="UTF-8"?>
<svg xmlns="http://www.w3.org/2000/svg" id="Layer_1" data-name="Layer 1" viewBox="0 0 24 24" width="512" height="512"><path d="m24,12c0,4.822-2.867,9.158-7.304,11.046-.064.027-.13.04-.196.04-.194,0-.379-.114-.46-.305-.108-.254.01-.547.264-.655,4.067-1.731,6.696-5.706,6.696-10.126,0-6.065-4.935-11-11-11S1,5.935,1,12c0,4.42,2.628,8.395,6.696,10.126.254.108.373.401.264.655-.081.19-.266.305-.46.305-.065,0-.132-.013-.196-.04C2.867,21.158,0,16.822,0,12,0,5.383,5.383,0,12,0s12,5.383,12,12Zm-12-6c3.309,0,6,2.691,6,6,0,1.398-.492,2.76-1.384,3.834-.177.212-.148.527.064.704.094.077.207.115.319.115.144,0,.286-.062.385-.181,1.042-1.252,1.616-2.841,1.616-4.473,0-3.859-3.14-7-7-7s-7,3.141-7,7c0,1.632.574,3.221,1.616,4.473.099.119.241.181.385.181.112,0,.226-.038.319-.115.212-.177.241-.492.064-.704-.893-1.074-1.384-2.436-1.384-3.834,0-3.309,2.691-6,6-6Zm2.441,10.869c.466.528.652,1.282.539,2.178l-.667,3.076c-.238,1.086-1.256,1.877-2.285,1.877s-2.078-.79-2.316-1.876l-.66-3.033c-.121-.94.065-1.693.531-2.222.508-.576,1.32-.869,2.413-.869,1.124,0,1.936.293,2.444.869Zm-.75.661c-.311-.352-.87-.53-1.664-.53-.824,0-1.383.179-1.694.53-.274.312-.374.779-.296,1.392l.652,2.988c.14.636.683,1.083,1.323,1.09.641-.007,1.184-.453,1.323-1.091l.659-3.031c.07-.568-.03-1.036-.304-1.348Zm-1.691-8.03c1.378,0,2.5,1.121,2.5,2.5s-1.122,2.5-2.5,2.5-2.5-1.121-2.5-2.5,1.122-2.5,2.5-2.5Zm0,1c-.827,0-1.5.673-1.5,1.5s.673,1.5,1.5,1.5,1.5-.673,1.5-1.5-.673-1.5-1.5-1.5Z"/></svg>
